<svg width="17" height="17" viewBox="0 0 17 17" fill="none" xmlns="http://www.w3.org/2000/svg">
<path d="M8.6 4.30078C10.8148 4.30078 12.643 6.12891 12.643 8.34375C12.643 10.5938 10.8148 12.3867 8.6 12.3867C6.35 12.3867 4.55703 10.5938 4.55703 8.34375C4.55703 6.12891 6.35 4.30078 8.6 4.30078ZM8.6 10.9805C10.0414 10.9805 11.2016 9.82031 11.2016 8.34375C11.2016 6.90234 10.0414 5.74219 8.6 5.74219C7.12344 5.74219 5.96328 6.90234 5.96328 8.34375C5.96328 9.82031 7.15859 10.9805 8.6 10.9805ZM13.7328 4.16016C13.7328 4.6875 13.3109 5.10938 12.7836 5.10938C12.2563 5.10938 11.8344 4.6875 11.8344 4.16016C11.8344 3.63281 12.2563 3.21094 12.7836 3.21094C13.3109 3.21094 13.7328 3.63281 13.7328 4.16016ZM16.4047 5.10938C16.475 6.41016 16.475 10.3125 16.4047 11.6133C16.3344 12.8789 16.0531 13.9688 15.1391 14.918C14.225 15.832 13.1 16.1133 11.8344 16.1836C10.5336 16.2539 6.63125 16.2539 5.33047 16.1836C4.06484 16.1133 2.975 15.832 2.02578 14.918C1.11172 13.9688 0.830469 12.8789 0.760157 11.6133C0.689844 10.3125 0.689844 6.41016 0.760157 5.10938C0.830469 3.84375 1.11172 2.71875 2.02578 1.80469C2.975 0.890625 4.06484 0.609375 5.33047 0.539062C6.63125 0.46875 10.5336 0.46875 11.8344 0.539062C13.1 0.609375 14.225 0.890625 15.1391 1.80469C16.0531 2.71875 16.3344 3.84375 16.4047 5.10938ZM14.7172 12.9844C15.1391 11.9648 15.0336 9.50391 15.0336 8.34375C15.0336 7.21875 15.1391 4.75781 14.7172 3.70312C14.4359 3.03516 13.9086 2.47266 13.2406 2.22656C12.1859 1.80469 9.725 1.91016 8.6 1.91016C7.43984 1.91016 4.97891 1.80469 3.95938 2.22656C3.25625 2.50781 2.72891 3.03516 2.44766 3.70312C2.02578 4.75781 2.13125 7.21875 2.13125 8.34375C2.13125 9.50391 2.02578 11.9648 2.44766 12.9844C2.72891 13.6875 3.25625 14.2148 3.95938 14.4961C4.97891 14.918 7.43984 14.8125 8.6 14.8125C9.725 14.8125 12.1859 14.918 13.2406 14.4961C13.9086 14.2148 14.4711 13.6875 14.7172 12.9844Z" fill="white"/>
</svg>
