<svg width="19" height="15" viewBox="0 0 19 15" fill="none" xmlns="http://www.w3.org/2000/svg">
<path d="M16.7367 3.6875C16.7367 3.86328 16.7367 4.00391 16.7367 4.17969C16.7367 9.06641 13.0453 14.6562 6.26016 14.6562C4.15078 14.6562 2.21719 14.0586 0.6 13.0039C0.88125 13.0391 1.1625 13.0742 1.47891 13.0742C3.20156 13.0742 4.78359 12.4766 6.04922 11.4922C4.43203 11.457 3.06094 10.4023 2.60391 8.92578C2.85 8.96094 3.06094 8.99609 3.30703 8.99609C3.62344 8.99609 3.975 8.92578 4.25625 8.85547C2.56875 8.50391 1.30313 7.02734 1.30313 5.23438V5.19922C1.79531 5.48047 2.39297 5.62109 2.99063 5.65625C1.97109 4.98828 1.33828 3.86328 1.33828 2.59766C1.33828 1.89453 1.51406 1.26172 1.83047 0.734375C3.65859 2.94922 6.40078 4.42578 9.45938 4.60156C9.38906 4.32031 9.35391 4.03906 9.35391 3.75781C9.35391 1.71875 11.0063 0.0664062 13.0453 0.0664062C14.1 0.0664062 15.0492 0.488281 15.7523 1.22656C16.5609 1.05078 17.3695 0.734375 18.0727 0.3125C17.7914 1.19141 17.2289 1.89453 16.4555 2.35156C17.1938 2.28125 17.932 2.07031 18.5648 1.78906C18.0727 2.52734 17.4398 3.16016 16.7367 3.6875Z" fill="white"/>
</svg>
